<svg width="45" height="45" viewBox="0 0 45 45" fill="none" xmlns="http://www.w3.org/2000/svg">
<g clip-path="url(#clip0_134_305)">
<path d="M44.9999 22.4972C44.9989 22.0408 44.7619 21.6173 44.3733 21.3777L39.8001 18.5586L44.3782 15.7091C44.7643 15.4688 44.9992 15.0465 44.9999 14.5918C45.0006 14.1371 44.7669 13.714 44.3815 13.4726L23.2 0.201181C22.7718 -0.0670603 22.2281 -0.0670603 21.8 0.201181L0.618397 13.4726C0.233086 13.714 -0.00061402 14.1371 1.21173e-06 14.5918C0.000704334 15.0466 0.235635 15.4689 0.621737 15.7091L5.16848 18.539L0.619716 21.3821C0.233877 21.6233 -0.000350349 22.0463 8.9102e-05 22.5013C0.000528553 22.9563 0.235547 23.3789 0.621825 23.6194L5.16857 26.4493L0.619716 29.2922C0.234493 29.5331 0.000352773 29.9552 8.9102e-05 30.4095C-0.000174569 30.8638 0.233526 31.2862 0.618485 31.5274L21.8 44.7988C22.0141 44.9329 22.2571 45 22.5 45C22.7429 45 22.9859 44.9329 23.2 44.7988L44.3815 31.5274C44.7677 31.2854 45.0016 30.8611 44.9999 30.4054C44.9982 29.9497 44.7613 29.5271 44.3733 29.2879L39.8001 26.4688L44.3782 23.6193C44.7657 23.3781 45.0009 22.9536 44.9999 22.4972ZM3.80741 14.5863L22.5 2.87428L41.1926 14.5863C41.0129 14.6981 23.0357 25.8872 22.5 26.2207L3.80741 14.5863ZM41.184 30.4194L22.5 42.1259L3.80372 30.4116L7.66113 28.0007L21.8034 36.8029C22.0166 36.9356 22.2583 37.002 22.5 37.002C22.7417 37.002 22.9834 36.9356 23.1966 36.8029L37.2998 28.025L41.184 30.4194ZM22.5 34.1308L3.80961 22.4978L7.66113 20.0906L21.8034 28.8928C22.0166 29.0255 22.2583 29.0919 22.5 29.0919C22.7417 29.0919 22.9834 29.0255 23.1966 28.8928L37.2998 20.1148L41.178 22.5054C41.0709 22.5722 22.9948 33.8227 22.5 34.1308Z" fill="#60E1CB"/>
</g>
<defs>
<clipPath id="clip0_134_305">
<rect width="45" height="45" fill="white"/>
</clipPath>
</defs>
</svg>
