<svg width="45" height="45" viewBox="0 0 45 45" fill="none" xmlns="http://www.w3.org/2000/svg">
<g clip-path="url(#clip0_134_244)">
<mask id="path-1-inside-1_134_244" fill="white">
<path d="M30.8592 28.4172C32.0159 26.7641 32.6953 24.7539 32.6953 22.5879C32.6953 16.9663 28.1216 12.3926 22.5 12.3926C16.8784 12.3926 12.3047 16.9663 12.3047 22.5879C12.3047 28.2098 16.8784 32.7832 22.5 32.7832C24.6887 32.7832 26.7184 32.0897 28.3815 30.9114L35.034 37.564C35.377 37.907 35.8271 38.0786 36.2769 38.0786C36.7266 38.0786 37.1767 37.907 37.5197 37.564C38.2063 36.8773 38.2063 35.7643 37.5197 35.078L30.8592 28.4172ZM15.8203 22.5879C15.8203 18.9047 18.8168 15.9082 22.5 15.9082C26.1832 15.9082 29.1797 18.9047 29.1797 22.5879C29.1797 26.2711 26.1832 29.2676 22.5 29.2676C18.8168 29.2676 15.8203 26.2711 15.8203 22.5879ZM45 21.6211V23.3789C45 26.2868 42.6345 28.6523 39.7266 28.6523H38.8411C38.6983 28.6523 38.5895 28.7062 38.5236 28.7516C37.7229 29.3009 36.6288 29.0969 36.0798 28.296C35.5305 27.4957 35.7344 26.4012 36.535 25.8522C37.2179 25.3843 38.0151 25.1367 38.8411 25.1367H39.7266C40.6958 25.1367 41.4844 24.3481 41.4844 23.3789V21.6211C41.4844 20.6519 40.6958 19.8633 39.7266 19.8633H38.8411C37.1795 19.8633 35.6932 18.8632 35.0539 17.3158L35.0433 17.2901C34.4009 15.7431 34.7446 13.9842 35.9195 12.8094L36.5457 12.1835C37.2309 11.4979 37.2309 10.3828 36.5457 9.69749L35.3025 8.45467C34.9705 8.12267 34.529 7.93968 34.0597 7.93968C33.59 7.93968 33.1485 8.12233 32.8168 8.45467L32.1906 9.08054C31.0158 10.2554 29.2569 10.5994 27.7099 9.95636L27.6838 9.94572C26.1368 9.30679 25.1367 7.82055 25.1367 6.15887V5.27344C25.1367 4.30424 24.3481 3.51562 23.3789 3.51562H21.6211C20.6519 3.51562 19.8633 4.30424 19.8633 5.27344V6.15887C19.8633 7.82055 18.8632 9.30679 17.3158 9.94572L17.2935 9.95499C15.7427 10.5991 13.9842 10.2554 12.8094 9.08054L12.1832 8.45432C11.8515 8.12233 11.41 7.93968 10.9403 7.93968C10.471 7.93968 10.0295 8.12233 9.69749 8.45432L8.45432 9.69749C7.76905 10.3828 7.76905 11.4979 8.45432 12.1835L9.08054 12.8094C10.2554 13.9842 10.5991 15.7431 9.95636 17.2904L9.94572 17.3165C9.30679 18.8632 7.82055 19.8633 6.15887 19.8633H5.27344C4.30424 19.8633 3.51562 20.6519 3.51562 21.6211V23.3789C3.51562 24.3481 4.30424 25.1367 5.27344 25.1367H6.15887C7.82021 25.1367 9.30679 26.1368 9.94572 27.6842L9.95876 27.7151C10.5991 29.2569 10.2554 31.0158 9.08054 32.1906L8.45432 32.8165C8.12233 33.1485 7.93968 33.59 7.93968 34.0597C7.93968 34.529 8.12233 34.9705 8.45432 35.3025L9.69749 36.5457C10.3828 37.2309 11.4979 37.2313 12.1835 36.5457L12.8094 35.9195C13.9835 34.7456 15.741 34.4013 17.2877 35.0426L17.3103 35.0519C18.8635 35.6932 19.8633 37.1798 19.8633 38.8411V39.7266C19.8633 40.6958 20.6519 41.4844 21.6211 41.4844H23.3789C24.3481 41.4844 25.1367 40.6958 25.1367 39.7266V38.8411C25.1367 38.0151 25.3843 37.2176 25.8525 36.535C26.4015 35.7344 27.4957 35.5305 28.2963 36.0798C29.0969 36.6288 29.3009 37.7229 28.7516 38.5236C28.7062 38.5895 28.6523 38.6983 28.6523 38.8411V39.7266C28.6523 42.6345 26.2868 45 23.3789 45H21.6211C18.7132 45 16.3477 42.6345 16.3477 39.7266V38.8411C16.3477 38.6084 16.2011 38.3972 15.9738 38.3035L15.9418 38.2901C15.7135 38.1953 15.4598 38.2407 15.2954 38.4055L14.6692 39.0317C12.6133 41.0875 9.26765 41.0875 7.21149 39.0317L5.96832 37.7885C4.97234 36.7925 4.42406 35.4683 4.42406 34.0597C4.42406 32.651 4.97234 31.3268 5.96867 30.3308L6.59454 29.7046C6.759 29.5402 6.80431 29.2865 6.7099 29.0585L6.69548 29.0242C6.60278 28.7989 6.39164 28.6523 6.15887 28.6523H5.27344C2.36549 28.6523 0 26.2868 0 23.3789V21.6211C0 18.7132 2.36549 16.3477 5.27344 16.3477H6.15887C6.39164 16.3477 6.60278 16.2011 6.69651 15.9741L6.70956 15.9422C6.80466 15.7139 6.75934 15.4602 6.59454 15.2954L5.96867 14.6695C3.91251 12.6133 3.91251 9.26765 5.96867 7.21149L7.21149 5.96867C8.20782 4.97269 9.53201 4.42406 10.9403 4.42406C12.349 4.42406 13.6732 4.97269 14.6695 5.96867L15.2954 6.59454C15.4602 6.75934 15.7139 6.80466 15.9418 6.7099L15.9734 6.69651C16.2011 6.60278 16.3477 6.39164 16.3477 6.15887V5.27344C16.3477 2.36549 18.7135 0 21.6211 0H23.3789C26.2868 0 28.6523 2.36549 28.6523 5.27344V6.15887C28.6523 6.39164 28.7989 6.60278 29.0259 6.69651L29.0616 6.71127C29.2865 6.80466 29.5402 6.75934 29.7046 6.59454L30.3308 5.96867C31.3268 4.97234 32.651 4.42406 34.0597 4.42406C35.468 4.42406 36.7925 4.97234 37.7885 5.96867L39.0313 7.21149C41.0875 9.26765 41.0875 12.6133 39.0313 14.6692L38.4055 15.2954C38.2407 15.4598 38.1953 15.7135 38.2901 15.9418L38.3031 15.9734C38.3972 16.2007 38.6084 16.3477 38.8411 16.3477H39.7266C42.6345 16.3477 45 18.7132 45 21.6211Z"/>
</mask>
<path d="M30.8592 28.4172C32.0159 26.7641 32.6953 24.7539 32.6953 22.5879C32.6953 16.9663 28.1216 12.3926 22.5 12.3926C16.8784 12.3926 12.3047 16.9663 12.3047 22.5879C12.3047 28.2098 16.8784 32.7832 22.5 32.7832C24.6887 32.7832 26.7184 32.0897 28.3815 30.9114L35.034 37.564C35.377 37.907 35.8271 38.0786 36.2769 38.0786C36.7266 38.0786 37.1767 37.907 37.5197 37.564C38.2063 36.8773 38.2063 35.7643 37.5197 35.078L30.8592 28.4172ZM15.8203 22.5879C15.8203 18.9047 18.8168 15.9082 22.5 15.9082C26.1832 15.9082 29.1797 18.9047 29.1797 22.5879C29.1797 26.2711 26.1832 29.2676 22.5 29.2676C18.8168 29.2676 15.8203 26.2711 15.8203 22.5879ZM45 21.6211V23.3789C45 26.2868 42.6345 28.6523 39.7266 28.6523H38.8411C38.6983 28.6523 38.5895 28.7062 38.5236 28.7516C37.7229 29.3009 36.6288 29.0969 36.0798 28.296C35.5305 27.4957 35.7344 26.4012 36.535 25.8522C37.2179 25.3843 38.0151 25.1367 38.8411 25.1367H39.7266C40.6958 25.1367 41.4844 24.3481 41.4844 23.3789V21.6211C41.4844 20.6519 40.6958 19.8633 39.7266 19.8633H38.8411C37.1795 19.8633 35.6932 18.8632 35.0539 17.3158L35.0433 17.2901C34.4009 15.7431 34.7446 13.9842 35.9195 12.8094L36.5457 12.1835C37.2309 11.4979 37.2309 10.3828 36.5457 9.69749L35.3025 8.45467C34.9705 8.12267 34.529 7.93968 34.0597 7.93968C33.59 7.93968 33.1485 8.12233 32.8168 8.45467L32.1906 9.08054C31.0158 10.2554 29.2569 10.5994 27.7099 9.95636L27.6838 9.94572C26.1368 9.30679 25.1367 7.82055 25.1367 6.15887V5.27344C25.1367 4.30424 24.3481 3.51562 23.3789 3.51562H21.6211C20.6519 3.51562 19.8633 4.30424 19.8633 5.27344V6.15887C19.8633 7.82055 18.8632 9.30679 17.3158 9.94572L17.2935 9.95499C15.7427 10.5991 13.9842 10.2554 12.8094 9.08054L12.1832 8.45432C11.8515 8.12233 11.41 7.93968 10.9403 7.93968C10.471 7.93968 10.0295 8.12233 9.69749 8.45432L8.45432 9.69749C7.76905 10.3828 7.76905 11.4979 8.45432 12.1835L9.08054 12.8094C10.2554 13.9842 10.5991 15.7431 9.95636 17.2904L9.94572 17.3165C9.30679 18.8632 7.82055 19.8633 6.15887 19.8633H5.27344C4.30424 19.8633 3.51562 20.6519 3.51562 21.6211V23.3789C3.51562 24.3481 4.30424 25.1367 5.27344 25.1367H6.15887C7.82021 25.1367 9.30679 26.1368 9.94572 27.6842L9.95876 27.7151C10.5991 29.2569 10.2554 31.0158 9.08054 32.1906L8.45432 32.8165C8.12233 33.1485 7.93968 33.59 7.93968 34.0597C7.93968 34.529 8.12233 34.9705 8.45432 35.3025L9.69749 36.5457C10.3828 37.2309 11.4979 37.2313 12.1835 36.5457L12.8094 35.9195C13.9835 34.7456 15.741 34.4013 17.2877 35.0426L17.3103 35.0519C18.8635 35.6932 19.8633 37.1798 19.8633 38.8411V39.7266C19.8633 40.6958 20.6519 41.4844 21.6211 41.4844H23.3789C24.3481 41.4844 25.1367 40.6958 25.1367 39.7266V38.8411C25.1367 38.0151 25.3843 37.2176 25.8525 36.535C26.4015 35.7344 27.4957 35.5305 28.2963 36.0798C29.0969 36.6288 29.3009 37.7229 28.7516 38.5236C28.7062 38.5895 28.6523 38.6983 28.6523 38.8411V39.7266C28.6523 42.6345 26.2868 45 23.3789 45H21.6211C18.7132 45 16.3477 42.6345 16.3477 39.7266V38.8411C16.3477 38.6084 16.2011 38.3972 15.9738 38.3035L15.9418 38.2901C15.7135 38.1953 15.4598 38.2407 15.2954 38.4055L14.6692 39.0317C12.6133 41.0875 9.26765 41.0875 7.21149 39.0317L5.96832 37.7885C4.97234 36.7925 4.42406 35.4683 4.42406 34.0597C4.42406 32.651 4.97234 31.3268 5.96867 30.3308L6.59454 29.7046C6.759 29.5402 6.80431 29.2865 6.7099 29.0585L6.69548 29.0242C6.60278 28.7989 6.39164 28.6523 6.15887 28.6523H5.27344C2.36549 28.6523 0 26.2868 0 23.3789V21.6211C0 18.7132 2.36549 16.3477 5.27344 16.3477H6.15887C6.39164 16.3477 6.60278 16.2011 6.69651 15.9741L6.70956 15.9422C6.80466 15.7139 6.75934 15.4602 6.59454 15.2954L5.96867 14.6695C3.91251 12.6133 3.91251 9.26765 5.96867 7.21149L7.21149 5.96867C8.20782 4.97269 9.53201 4.42406 10.9403 4.42406C12.349 4.42406 13.6732 4.97269 14.6695 5.96867L15.2954 6.59454C15.4602 6.75934 15.7139 6.80466 15.9418 6.7099L15.9734 6.69651C16.2011 6.60278 16.3477 6.39164 16.3477 6.15887V5.27344C16.3477 2.36549 18.7135 0 21.6211 0H23.3789C26.2868 0 28.6523 2.36549 28.6523 5.27344V6.15887C28.6523 6.39164 28.7989 6.60278 29.0259 6.69651L29.0616 6.71127C29.2865 6.80466 29.5402 6.75934 29.7046 6.59454L30.3308 5.96867C31.3268 4.97234 32.651 4.42406 34.0597 4.42406C35.468 4.42406 36.7925 4.97234 37.7885 5.96867L39.0313 7.21149C41.0875 9.26765 41.0875 12.6133 39.0313 14.6692L38.4055 15.2954C38.2407 15.4598 38.1953 15.7135 38.2901 15.9418L38.3031 15.9734C38.3972 16.2007 38.6084 16.3477 38.8411 16.3477H39.7266C42.6345 16.3477 45 18.7132 45 21.6211Z" fill="#60E1CB" stroke="#FCFCFE" stroke-width="1.2" mask="url(#path-1-inside-1_134_244)"/>
</g>
<defs>
<clipPath id="clip0_134_244">
<rect width="45" height="45" fill="white"/>
</clipPath>
</defs>
</svg>
