<svg width="45" height="45" viewBox="0 0 45 45" fill="none" xmlns="http://www.w3.org/2000/svg">
<path d="M39.3028 5.85197H38.7688C39.7866 4.195 39.4108 1.97044 37.7774 0.758542C36.0174 -0.547135 33.5163 -0.126851 32.2881 1.70862L29.5155 5.85206H5.69791C3.74018 5.85206 2.14746 7.44478 2.14746 9.4025V32.1019C2.14746 34.0596 3.74018 35.6524 5.69791 35.6524H19.4889L18.4469 40.029H16.1979C14.7322 40.029 13.5397 41.2214 13.5397 42.6871V43.2421H10.7673C10.2818 43.2421 9.88836 43.6357 9.88836 44.121C9.88836 44.6063 10.2818 44.9999 10.7673 44.9999H34.2335C34.7189 44.9999 35.1124 44.6063 35.1124 44.121C35.1124 43.6357 34.7189 43.2421 34.2335 43.2421H31.461V42.6871C31.461 41.2214 30.2686 40.029 28.8028 40.029H26.5539L25.5118 35.6524H39.3028C41.2606 35.6524 42.8533 34.0596 42.8533 32.1019V27.1072V9.40242C42.8533 7.44469 41.2606 5.85197 39.3028 5.85197ZM26.7099 21.3027C25.3357 22.2647 22.7614 20.9572 20.3029 22.269C19.7031 19.1529 20.0813 16.2222 23.2035 15.5754C23.607 15.4913 24.0415 15.4532 24.4113 15.4606C25.4681 16.2447 26.537 17.0377 27.5908 17.8196C28.0521 19.1615 27.879 20.4844 26.7099 21.3027ZM27.5956 11.8821L30.0835 13.728L28.1702 16.0606C27.3826 15.4762 26.7055 14.9739 25.9178 14.3894C26.0814 14.145 27.4461 12.1054 27.5956 11.8821ZM33.7491 2.68621C34.4147 1.69122 35.7724 1.45972 36.73 2.1703C37.688 2.88097 37.8595 4.24729 37.1004 5.17285C35.7535 6.81488 32.5514 10.719 31.1994 12.3673L28.5742 10.4196L33.7491 2.68621ZM29.7032 42.6871V43.2421H15.2975V42.6871C15.2975 42.1907 15.7014 41.7868 16.1979 41.7868H28.8028C29.2992 41.7868 29.7032 42.1907 29.7032 42.6871ZM24.7469 40.029H20.2538L21.2958 35.6524H23.7049L24.7469 40.029ZM41.0955 32.1019C41.0955 33.0904 40.2913 33.8946 39.3028 33.8946C37.9077 33.8946 7.26664 33.8946 5.698 33.8946C4.70951 33.8946 3.90533 33.0904 3.90533 32.1019V27.9861H6.41684C6.90225 27.9861 7.29573 27.5925 7.29573 27.1072C7.29573 26.6219 6.90225 26.2283 6.41684 26.2283H3.90515V9.40242C3.90515 8.41393 4.70933 7.60975 5.69782 7.60975H28.3393C27.4973 8.86805 25.0409 12.539 24.2629 13.7017C22.5405 13.7172 20.821 14.3173 19.6953 15.6314C18.1635 17.4195 17.8943 20.2291 18.8954 23.9821C19.0665 24.6239 19.8673 24.8538 20.3518 24.391C22.6243 22.2195 25.4547 24.5881 27.9893 22.5366C29.5365 21.2842 29.9027 19.2932 29.3193 17.4313C30.1079 16.4698 36.5845 8.57353 37.375 7.60975H39.3027C40.2912 7.60975 41.0953 8.41393 41.0953 9.40242V26.2282H13.4478C12.9624 26.2282 12.5689 26.6218 12.5689 27.1071C12.5689 27.5924 12.9624 27.986 13.4478 27.986H41.0955V32.1019Z" fill="#60E1CB"/>
<path d="M9.76304 26.2452C9.33993 26.3317 9.0564 26.6974 9.0564 27.1075C9.0564 27.6573 9.55904 28.0783 10.1067 27.9689C10.5933 27.8701 10.8898 27.4011 10.7966 26.9353C10.6988 26.4545 10.2325 26.1507 9.76304 26.2452Z" fill="#60E1CB"/>
</svg>
