<svg width="45" height="45" viewBox="0 0 45 45" fill="none" xmlns="http://www.w3.org/2000/svg">
<g clip-path="url(#clip0_134_354)">
<path d="M44.3572 7.07131C43.3125 4.41956 42.1875 3.53564 37.6875 3.53564C34.9553 3.53564 32.8661 5.62489 32.8661 8.35706C32.8661 9.80348 33.6697 11.1696 34.4733 12.616C34.7143 13.1785 35.1161 13.741 35.3572 14.3035L35.6786 14.9463C36.4018 16.3927 36.8839 17.4374 36.8839 19.6071C36.8839 20.491 36.7232 21.4553 36.3214 22.8213V22.9016L33.6697 30.857L26.7829 11.3446C27.0159 11.3146 27.249 11.2832 27.4822 11.2499C28.7679 11.2499 29.8125 10.1249 29.8125 8.83914C29.8125 7.47306 28.7678 6.42839 27.4017 6.42839C27.3214 6.42839 27.3214 6.42839 27.241 6.42839C24.1071 6.91056 20.9732 6.91056 17.8392 6.42839C17.7589 6.42839 17.7589 6.42839 17.6785 6.42839C16.3124 6.42839 15.2677 7.47306 15.2677 8.83914C15.2678 10.1249 16.3125 11.2499 17.5983 11.2499C17.8675 11.2902 18.1395 11.3274 18.4125 11.3629L21.6964 19.6874L17.6786 31.4999L10.4458 11.2636C10.4728 11.2589 10.4998 11.2547 10.5267 11.2499C11.8125 11.1696 12.8571 10.1249 12.8571 8.83914C12.8571 7.47306 11.8124 6.42839 10.4463 6.42839C10.366 6.42839 10.366 6.42839 10.2856 6.42839C7.71416 6.91056 5.14274 6.91056 2.57133 6.42839C2.491 6.42839 2.491 6.42839 2.41058 6.42839C1.04467 6.42848 0 7.47314 0 8.83914C0 10.1024 1.00863 11.1322 2.26336 11.2441L12.1339 38.2499C12.6964 39.7766 13.9017 40.9016 15.5089 41.3035C15.9107 41.3838 16.2322 41.4642 16.6339 41.4642C18.6428 41.4642 20.5714 40.0981 21.2142 38.1696L25.7946 24.5088L30.616 38.1696C31.0177 39.2946 31.8213 40.0981 32.7052 40.4196C33.5088 40.741 34.3927 40.6606 35.1963 40.2588C36.241 39.8571 37.0446 38.9731 37.366 37.9285L43.3125 20.0891C44.6786 16.6338 45 13.5802 45 11.6516V10.3659C45 9.24098 44.8392 8.11598 44.3572 7.07131ZM17.6786 9.64272C17.1964 9.64272 16.875 9.32131 16.875 8.83914C16.875 8.43739 17.1964 8.03556 17.5983 8.03556C20.8929 8.59806 24.1072 8.59806 27.4822 8.03556C27.8839 8.03556 28.2054 8.4373 28.2054 8.83914C28.2054 9.32131 27.884 9.64272 27.4018 9.64272C27.3215 9.64272 27.3215 9.64272 27.2411 9.64272C26.763 9.71629 26.2849 9.7772 25.8068 9.82835C25.7268 9.81183 25.6423 9.80348 25.5536 9.80348C23.3839 10.0446 21.2143 10.0446 19.0447 9.80348C19.0432 9.80348 19.0416 9.80365 19.0401 9.80365C18.6398 9.75777 18.2396 9.70434 17.8393 9.64272C17.7589 9.64272 17.7589 9.64272 17.6786 9.64272ZM1.60717 8.83914C1.60717 8.43739 1.92858 8.03556 2.33042 8.03556C5.06259 8.59806 7.79467 8.59806 10.5268 8.03556C10.9286 8.03556 11.2501 8.4373 11.2501 8.83914C11.2501 9.32131 10.9287 9.64272 10.4465 9.64272C10.3662 9.64272 10.3662 9.64272 10.2858 9.64272C9.95326 9.70504 9.62077 9.759 9.28828 9.80523C9.27264 9.80453 9.25699 9.80348 9.24108 9.80348C9.10687 9.82492 8.97223 9.8447 8.83731 9.86333C6.96173 10.083 5.08623 10.0448 3.21064 9.75144C3.15826 9.74186 3.10588 9.73316 3.05358 9.72314C3.04655 9.72314 3.03952 9.72376 3.03249 9.72385C2.87877 9.69845 2.72514 9.67164 2.57142 9.64281C2.49108 9.64281 2.49108 9.64281 2.41066 9.64281C1.92858 9.64272 1.60717 9.32131 1.60717 8.83914ZM43.3125 11.7321C43.3125 13.4999 43.0714 16.3928 41.7858 19.6071L35.759 37.4463C35.5179 38.0891 35.0358 38.5713 34.3929 38.8124C33.9912 38.9731 33.5893 39.0535 33.1876 38.8927C32.7054 38.732 32.2233 38.2499 31.9823 37.607L26.3573 21.857C26.2769 21.5356 25.9555 21.2945 25.634 21.2945C25.3126 21.2945 24.9912 21.5356 24.9108 21.857L19.6875 37.6071C19.2053 39.1338 17.5178 40.0981 15.9108 39.6963C14.8661 39.4552 14.0625 38.7321 13.6608 37.6874L4.1052 11.51C4.87969 11.5987 5.65409 11.6517 6.42858 11.6517C7.23322 11.6517 8.03786 11.5949 8.84241 11.4998L17.0357 34.2321C17.116 34.5535 17.4374 34.7946 17.7589 34.7946C18.0803 34.7946 18.4017 34.5535 18.4822 34.2321L23.3036 19.9285C23.3839 19.7677 23.3839 19.5267 23.3036 19.366L20.2762 11.5585C21.024 11.6172 21.7703 11.6517 22.5 11.6517C23.3683 11.6517 24.2605 11.6037 25.163 11.5224L33.0267 33.5892C33.1071 33.9106 33.4285 34.1517 33.75 34.1517C34.0715 34.1517 34.3928 33.9106 34.4733 33.5892L37.8483 23.5446C37.9286 23.4642 37.9286 23.4642 37.9286 23.3838C38.4108 21.8571 38.5714 20.6516 38.5714 19.6874C38.5714 17.116 37.9286 15.8302 37.2053 14.3035L36.8839 13.6606C36.5625 13.0981 36.2411 12.4553 35.9197 11.8928C35.1964 10.6874 34.5536 9.48206 34.5536 8.43739C34.5536 6.34814 36.2411 5.22314 37.7678 5.22314C41.9464 5.22314 42.2678 6.02673 42.8303 7.71423C43.1517 8.51781 43.3125 9.40173 43.3125 10.366V11.7321Z" fill="#60E1CB"/>
</g>
<defs>
<clipPath id="clip0_134_354">
<rect width="45" height="45" fill="white"/>
</clipPath>
</defs>
</svg>
